<?xml version="1.0" encoding="iso-8859-1"?>
<!-- Generator: Adobe Illustrator 21.1.0, SVG Export Plug-In . SVG Version: 6.00 Build 0)  -->
<svg version="1.1" id="&#x56FE;&#x5C42;_1" xmlns="http://www.w3.org/2000/svg" xmlns:xlink="http://www.w3.org/1999/xlink" x="0px"
	 y="0px" viewBox="0 0 24 24" style="enable-background:new 0 0 24 24;" xml:space="preserve">
<path style="fill:#89CBFA;" d="M11.5-32c-3.056,0-5.99,0.894-8.5,2.555V-17h17v-12.445C17.49-31.106,14.556-32,11.5-32z"/>
<text transform="matrix(1 0 0 1 -128.5 12.2501)" style="font-family:'ArialMT'; font-size:12px;">Dark</text>
<text transform="matrix(1 0 0 1 -63.5 -94.0833)" style="fill:#FFFFFF; font-family:'ArialMT'; font-size:10px;">100%</text>
<text transform="matrix(1 0 0 1 0.5 -94.0833)" style="fill:#FFFFFF; font-family:'ArialMT'; font-size:10px;">150%</text>
<text transform="matrix(1 0 0 1 80.5 -94.0833)" style="fill:#FFFFFF; font-family:'ArialMT'; font-size:10px;">200%</text>
<text transform="matrix(1 0 0 1 176.5 -94.0833)" style="fill:#FFFFFF; font-family:'ArialMT'; font-size:10px;">300%</text>
<text transform="matrix(1 0 0 1 304.1875 -94.0833)" style="fill:#FFFFFF; font-family:'ArialMT'; font-size:10px;">400%</text>
<text transform="matrix(1 0 0 1 -128.5 259.2501)" style="font-family:'ArialMT'; font-size:12px;">Dark</text>
<rect x="-62" y="-14" style="fill:#D9D9D9;" width="11" height="4"/>
<path style="fill:#89CBFA;" d="M-56.5-24c-1.971,0-3.872,0.59-5.5,1.673V-15h11v-7.327C-52.628-23.41-54.529-24-56.5-24z"/>
<path style="fill:#73C5FF;" d="M-56.5-25c2.9,0,5.533,1.136,7.5,2.976v-1.335C-51.055-25.008-53.66-26-56.5-26
	s-5.445,0.992-7.5,2.641v1.335C-62.033-23.864-59.4-25-56.5-25z"/>
<rect x="-62" y="12" style="fill:#F3F3F3;" width="11" height="4"/>
<path style="fill:#666666;" d="M-62,12v4h11v-4H-62z M-52,15h-9v-2h9V15z"/>
<path style="fill:#67B1E6;" d="M-56.5,2c-1.971,0-3.872,0.59-5.5,1.673V11h11V3.673C-52.628,2.59-54.529,2-56.5,2z"/>
<path style="fill:#178FE6;" d="M-56.5,1c2.9,0,5.533,1.136,7.5,2.976V2.641C-51.055,0.992-53.66,0-56.5,0s-5.445,0.992-7.5,2.641
	v1.335C-62.033,2.136-59.4,1-56.5,1z"/>
<rect x="-57" y="-17" style="fill:#FFFFFF;" width="1" height="2"/>
<rect x="-57" y="-18" style="fill:#333333;" width="1" height="3"/>
<polygon style="fill:#333333;" points="-59,-18 -56.5,-22 -54,-18 "/>
<rect x="-60" y="216" style="fill:#D9D9D9;" width="23" height="8"/>
<rect x="3" y="-16" style="fill:#D9D9D9;" width="17" height="6"/>
<rect x="11" y="-20" style="fill:#FFFFFF;" width="1" height="2"/>
<rect x="11" y="-22" style="fill:#333333;" width="1" height="5"/>
<polygon style="fill:#333333;" points="8,-22 11.5,-28 15,-22 "/>
<rect x="-57" y="8" style="fill:#333333;" width="1" height="3"/>
<polygon style="fill:#333333;" points="-59,8 -56.5,4 -54,8 "/>
<rect x="314" y="-26" style="fill:#D9D9D9;" width="44" height="16"/>
<path style="fill:#89CBFA;" d="M336-66c-7.884,0-15,2.361-22,6.694V-30h44v-29.306C352-63.639,343.885-66,336-66z"/>
<path style="fill:#73C5FF;" d="M336-70c11.598,0,23,4.544,30,11.904v-5.341C358-70.033,347.359-74,336-74s-21,3.967-30,10.563v5.341
	C314-65.456,324.402-70,336-70z"/>
<rect x="314" y="48" style="fill:#F3F3F3;" width="44" height="16"/>
<path style="fill:#666666;" d="M314,48v16h44V48H314z M354,60h-36v-8h36V60z"/>
<path style="fill:#67B1E6;" d="M336,8c-7.884,0-15,2.361-22,6.694V44h44V14.694C352,10.361,343.885,8,336,8z"/>
<path style="fill:#178FE6;" d="M336,4c11.598,0,23,4.544,30,11.904v-5.341C358,3.967,347.359,0,336,0s-21,3.967-30,10.563v5.341
	C314,8.544,324.402,4,336,4z"/>
<rect x="334" y="-38" style="fill:#FFFFFF;" width="4" height="8"/>
<rect x="334" y="-42" style="fill:#333333;" width="4" height="12"/>
<polygon style="fill:#333333;" points="326,-42 336,-58 346,-42 "/>
<rect x="334" y="32" style="fill:#333333;" width="4" height="12"/>
<polygon style="fill:#333333;" points="326,32 336,16 346,32 "/>
<rect x="183" y="-22" style="fill:#D9D9D9;" width="33" height="12"/>
<path style="fill:#89CBFA;" d="M199.5-52c-5.913,0-11.616,1.771-16.5,5.02V-25h33v-21.98C211.117-50.229,205.414-52,199.5-52z"/>
<path style="fill:#73C5FF;" d="M199.5-55c8.699,0,16.599,3.408,22.5,8.928v-4.006C215.835-55.025,208.02-58,199.5-58
	s-16.335,2.975-22.5,7.922v4.006C182.901-51.592,190.801-55,199.5-55z"/>
<rect x="183" y="36" style="fill:#F3F3F3;" width="33" height="12"/>
<path style="fill:#666666;" d="M183,36v12h33V36H183z M213,45h-27v-6h27V45z"/>
<path style="fill:#67B1E6;" d="M199.5,6c-5.913,0-11.616,1.771-16.5,5.02V33h33V11.02C211.117,7.771,205.414,6,199.5,6z"/>
<path style="fill:#178FE6;" d="M199.5,3c8.699,0,16.599,3.408,22.5,8.928V7.922C215.835,2.975,208.02,0,199.5,0
	S183.165,2.975,177,7.922v4.006C182.901,6.408,190.801,3,199.5,3z"/>
<rect x="198" y="-31" style="fill:#FFFFFF;" width="3" height="6"/>
<rect x="198" y="-34" style="fill:#333333;" width="3" height="9"/>
<polygon style="fill:#333333;" points="192,-34 199.5,-46 207,-34 "/>
<rect x="198" y="24" style="fill:#333333;" width="3" height="9"/>
<polygon style="fill:#333333;" points="192,24 199.5,12 207,24 "/>
<rect x="85" y="-18" style="fill:#D9D9D9;" width="22" height="8"/>
<path style="fill:#89CBFA;" d="M96-38c-3.942,0-7,1.18-11,3.347V-20h22v-14.653C104-36.82,99.943-38,96-38z"/>
<path style="fill:#73C5FF;" d="M96-40c5.799,0,12,2.272,15,5.952v-2.67C107-40.016,101.68-42,96-42s-10,1.984-15,5.281v2.67
	C85-37.728,90.201-40,96-40z"/>
<rect x="85" y="24" style="fill:#F3F3F3;" width="22" height="8"/>
<path style="fill:#666666;" d="M85,24v8h22v-8H85z M105,30H87v-4h18V30z"/>
<path style="fill:#67B1E6;" d="M96,4c-3.942,0-7,1.18-11,3.347V22h22V7.347C104,5.18,99.943,4,96,4z"/>
<path style="fill:#178FE6;" d="M96,2c5.799,0,12,2.272,15,5.952v-2.67C107,1.984,101.68,0,96,0S86,1.984,81,5.281v2.67
	C85,4.272,90.201,2,96,2z"/>
<rect x="95" y="-24" style="fill:#FFFFFF;" width="2" height="4"/>
<rect x="95" y="-26" style="fill:#333333;" width="2" height="6"/>
<polygon style="fill:#333333;" points="91,-26 96,-34 101,-26 "/>
<rect x="95" y="16" style="fill:#333333;" width="2" height="6"/>
<polygon style="fill:#333333;" points="91,16 96,8 101,16 "/>
<path style="fill:#73C5FF;" d="M11.5-33c4.47,0,8.525,1.794,11.5,4.691v-1.36C19.923-32.358,15.907-34,11.5-34
	S3.077-32.358,0-29.669v1.36C2.975-31.206,7.03-33,11.5-33z"/>
<path style="fill:#67B1E6;" d="M11.5,2C8.444,2,5.51,2.894,3,4.555V17h17V4.555C17.49,2.894,14.556,2,11.5,2z"/>
<rect x="3" y="18" style="fill:#F3F3F3;" width="17" height="6"/>
<path style="fill:#666666;" d="M3,18v6h17v-6H3z M19,23H4v-4h15V23z"/>
<rect x="11" y="14" style="fill:#FFFFFF;" width="1" height="2"/>
<rect x="11" y="12" style="fill:#333333;" width="1" height="5"/>
<polygon style="fill:#333333;" points="8,12 11.5,6 15,12 "/>
<path style="fill:#178FE6;" d="M11.5,1c4.47,0,8.525,1.794,11.5,4.691v-1.36C19.923,1.642,15.907,0,11.5,0S3.077,1.642,0,4.331v1.36
	C2.975,2.794,7.03,1,11.5,1z"/>
<path style="fill:#89CBFA;" d="M-48.5,194c-4.054,0-8.021,1.084-11.5,3.098V215h23v-17.902C-40.479,195.084-44.447,194-48.5,194z"/>
<rect x="6" y="216" style="fill:#D9D9D9;" width="35" height="8"/>
<path style="fill:#73C5FF;" d="M-48.5,193c5.905,0,11.315,2.148,15.5,5.698v-1.305c-4.261-3.373-9.643-5.393-15.5-5.393
	s-11.239,2.019-15.5,5.393v1.305C-59.815,195.148-54.405,193-48.5,193z"/>
<rect x="-49" y="209" style="fill:#333333;" width="1" height="6"/>
<polygon style="fill:#333333;" points="-52,209 -48.5,203 -45,209 "/>
<rect x="-60" y="264" style="fill:#F3F3F3;" width="23" height="8"/>
<path style="fill:#666666;" d="M-60,264v8h23v-8H-60z M-38,271h-21v-6h21V271z"/>
<path style="fill:#67B1E6;" d="M-48.5,242c-4.054,0-8.021,1.084-11.5,3.098V263h23v-17.902C-40.479,243.084-44.447,242-48.5,242z"/>
<path style="fill:#178FE6;" d="M-48.5,241c5.905,0,11.315,2.148,15.5,5.698v-1.305c-4.261-3.373-9.643-5.393-15.5-5.393
	s-11.239,2.019-15.5,5.393v1.305C-59.815,243.148-54.405,241-48.5,241z"/>
<rect x="-49" y="257" style="fill:#333333;" width="1" height="6"/>
<polygon style="fill:#333333;" points="-52,257 -48.5,251 -45,257 "/>
<rect x="322" y="192" style="fill:#D9D9D9;" width="92" height="32"/>
<path style="fill:#89CBFA;" d="M368,104c-16.216,0-32,4.335-46,12.393V188h92v-71.607C401,108.335,384.213,104,368,104z"/>
<path style="fill:#73C5FF;" d="M368,100c23.619,0,46,8.591,62,22.791v-5.22C413,104.078,391.427,96,368,96s-44,8.078-62,21.571v5.22
	C323,108.591,344.381,100,368,100z"/>
<rect x="366" y="164" style="fill:#333333;" width="4" height="24"/>
<polygon style="fill:#333333;" points="354,164 368,140 382,164 "/>
<rect x="322" y="336" style="fill:#F3F3F3;" width="92" height="32"/>
<path style="fill:#666666;" d="M322,336v32h92v-32H322z M410,364h-84v-24h84V364z"/>
<path style="fill:#67B1E6;" d="M368,248c-16.216,0-32,4.335-46,12.393V332h92v-71.607C401,252.335,384.213,248,368,248z"/>
<path style="fill:#178FE6;" d="M368,244c23.619,0,46,8.591,62,22.791v-5.22C413,248.078,391.427,240,368,240s-44,8.078-62,21.571
	v5.22C323,252.591,344.381,244,368,244z"/>
<rect x="366" y="308" style="fill:#333333;" width="4" height="24"/>
<polygon style="fill:#333333;" points="354,308 368,284 382,308 "/>
<rect x="189" y="200" style="fill:#D9D9D9;" width="69" height="24"/>
<path style="fill:#89CBFA;" d="M223.5,134c-12.162,0-24.064,3.251-34.5,9.295V197h69v-53.705C247.563,137.252,235.659,134,223.5,134
	z"/>
<path style="fill:#73C5FF;" d="M223.5,131c17.714,0,33.944,6.443,46.5,17.093v-3.915C257.216,134.058,241.07,128,223.5,128
	s-33.716,6.058-46.5,16.178v3.915C189.556,137.443,205.786,131,223.5,131z"/>
<rect x="222" y="179" style="fill:#333333;" width="3" height="18"/>
<polygon style="fill:#333333;" points="213,179 223.5,161 234,179 "/>
<rect x="189" y="312" style="fill:#F3F3F3;" width="69" height="24"/>
<path style="fill:#666666;" d="M189,312v24h69v-24H189z M255,333h-63v-18h63V333z"/>
<path style="fill:#67B1E6;" d="M223.5,246c-12.162,0-24.064,3.251-34.5,9.295V309h69v-53.705C247.563,249.252,235.659,246,223.5,246
	z"/>
<path style="fill:#178FE6;" d="M223.5,243c17.714,0,33.944,6.443,46.5,17.093v-3.915C257.216,246.058,241.07,240,223.5,240
	s-33.716,6.058-46.5,16.178v3.915C189.556,249.443,205.786,243,223.5,243z"/>
<rect x="222" y="291" style="fill:#333333;" width="3" height="18"/>
<polygon style="fill:#333333;" points="213,291 223.5,273 234,291 "/>
<rect x="89" y="208" style="fill:#D9D9D9;" width="46" height="16"/>
<path style="fill:#89CBFA;" d="M112,164c-8.108,0-16,2.168-23,6.197V206h46v-35.803C129,166.168,120.106,164,112,164z"/>
<path style="fill:#73C5FF;" d="M112,162c11.81,0,23,4.296,31,11.395v-2.61C135,164.039,123.714,160,112,160s-22,4.039-31,10.785
	v2.61C90,166.296,100.19,162,112,162z"/>
<rect x="111" y="194" style="fill:#333333;" width="2" height="12"/>
<polygon style="fill:#333333;" points="105,194 112,182 119,194 "/>
<rect x="89" y="288" style="fill:#F3F3F3;" width="46" height="16"/>
<path style="fill:#666666;" d="M89,288v16h46v-16H89z M133,302H91v-12h42V302z"/>
<path style="fill:#67B1E6;" d="M112,244c-8.108,0-16,2.168-23,6.197V286h46v-35.803C129,246.168,120.106,244,112,244z"/>
<path style="fill:#178FE6;" d="M112,242c11.81,0,23,4.296,31,11.395v-2.61C135,244.039,123.714,240,112,240s-22,4.039-31,10.785
	v2.61C90,246.296,100.19,242,112,242z"/>
<rect x="111" y="274" style="fill:#333333;" width="2" height="12"/>
<polygon style="fill:#333333;" points="105,274 112,262 119,274 "/>
<path style="fill:#89CBFA;" d="M23.5,178c-6.158,0-12.19,1.623-17.5,4.64V215h35v-32.36C35.69,179.623,29.658,178,23.5,178z"/>
<path style="fill:#73C5FF;" d="M23.5,177c8.946,0,17.145,3.24,23.5,8.602v-1.316C40.57,179.106,32.399,176,23.5,176
	S6.43,179.106,0,184.285v1.316C6.355,180.24,14.554,177,23.5,177z"/>
<rect x="23" y="206" style="fill:#333333;" width="1" height="9"/>
<polygon style="fill:#333333;" points="19,206 23.5,198 28,206 "/>
<rect x="6" y="280" style="fill:#F3F3F3;" width="35" height="8"/>
<path style="fill:#666666;" d="M6,280v8h35v-8H6z M40,287H7v-6h33V287z"/>
<path style="fill:#67B1E6;" d="M23.5,242c-6.158,0-12.19,1.623-17.5,4.64V279h35v-32.36C35.69,243.623,29.658,242,23.5,242z"/>
<path style="fill:#178FE6;" d="M23.5,241c8.946,0,17.145,3.24,23.5,8.602v-1.316C40.57,243.106,32.399,240,23.5,240
	S6.43,243.106,0,248.285v1.316C6.355,244.24,14.554,241,23.5,241z"/>
<rect x="23" y="270" style="fill:#333333;" width="1" height="9"/>
<polygon style="fill:#333333;" points="19,270 23.5,262 28,270 "/>
<g>
	<path style="opacity:0.1;" d="M326,328v-2v-34v-29.266v-4.487c-1,0.693-2,1.386-4,2.146V332h4V328z"/>
	<path style="opacity:0.1;" d="M410,258.248v4.486V292v34v2v4h4v-71.607C413,259.634,412,258.941,410,258.248z"/>
</g>
<g>
	<path style="opacity:0.1;" d="M192,306v-5v-22v-21.949v-3.365c-1.008,0.519-2.017,1.04-3,1.609V309h3V306z"/>
	<path style="opacity:0.1;" d="M255,253.686v3.365V279v22v5v3h3v-53.705C257.017,254.726,256.008,254.206,255,253.686z"/>
</g>
<g>
	<path style="opacity:0.1;" d="M91,284v-1v-17v-14.633v-2.243c0,0.346-1,0.693-2,1.073V286h2V284z"/>
	<path style="opacity:0.1;" d="M133,249.124v2.243V266v17v1v2h2v-35.803C135,249.817,134,249.47,133,249.124z"/>
</g>
<g>
	<path style="opacity:0.1;" d="M7,278v-13v-17.772v-1.114c-0.333,0.176-0.672,0.34-1,0.526V279h1V278z"/>
	<path style="opacity:0.1;" d="M40,246.113v1.114V265v13v1h1v-32.36C40.672,246.453,40.333,246.289,40,246.113z"/>
</g>
<g>
	<path style="opacity:0.1;" d="M-59,253v-7.316v-1.122c-0.336,0.173-0.672,0.347-1,0.536V263h1v-1V253z"/>
	<path style="opacity:0.1;" d="M-38,244.562v1.122V253v9v1h1v-17.902C-37.328,244.909-37.664,244.735-38,244.562z"/>
</g>
<g>
	<path style="opacity:0.1;" d="M318,40V28V16.91v-4.481c-1,0.698-2,1.411-4,2.265V44h4V40z"/>
	<path style="opacity:0.1;" d="M354,12.428v4.482V28v12v4h4V14.694C357,13.84,356,13.126,354,12.428z"/>
</g>
<g>
	<path style="opacity:0.1;" d="M186,30v-9v-8.317V9.322c-1.021,0.523-2.038,1.058-3,1.699V33h3V30z"/>
	<path style="opacity:0.1;" d="M213,9.321v3.361V21v9v3h3V11.02C215.038,10.38,214.021,9.845,213,9.321z"/>
</g>
<g>
	<path style="opacity:0.1;" d="M87,20v-1v-5V8.455V6.214c0,0.349-1,0.706-2,1.132V22h2V20z"/>
	<path style="opacity:0.1;" d="M105,6.214v2.241V14v5v1v2h2V7.347C107,6.92,106,6.563,105,6.214z"/>
</g>
<g>
	<path style="opacity:0.1;" d="M4,16v-6V5.104V3.948c-0.34,0.19-0.674,0.391-1,0.607V17h1V16z"/>
	<path style="opacity:0.1;" d="M19,3.948v1.156V10v6v1h1V4.555C19.674,4.339,19.34,4.138,19,3.948z"/>
</g>
<g>
	<path style="opacity:0.1;" d="M-52,3.107v1.12V7v3v1h1V3.673C-51.321,3.46-51.66,3.282-52,3.107z"/>
	<path style="opacity:0.1;" d="M-61,7V4.228v-1.12c-0.34,0.174-0.679,0.353-1,0.566V11h1v-1V7z"/>
</g>
</svg>
