<svg width="290" height="175" viewBox="0 0 290 175" fill="none" xmlns="http://www.w3.org/2000/svg">
<rect x="66" y="100" width="3" height="44" fill="#D8D8D8" stroke="#979797" stroke-linejoin="round"/>
<rect x="135" y="100" width="3" height="44" fill="#D8D8D8" stroke="#979797" stroke-linejoin="round"/>
<rect x="205" y="100" width="3" height="44" fill="#D8D8D8" stroke="#979797" stroke-linejoin="round"/>
<path d="M62 34.5H142C144.485 34.5 146.5 36.5147 146.5 39V103.5H57.5V39C57.5 36.5147 59.5147 34.5 62 34.5Z" fill="#585858" stroke="#505050"/>
<path d="M197 34.5H217C219.485 34.5 221.5 36.5147 221.5 39V103.5H192.5V39C192.5 36.5147 194.515 34.5 197 34.5Z" fill="#585858" stroke="#505050"/>
<path fill-rule="evenodd" clip-rule="evenodd" d="M23 34.5C23 34.2239 23.2239 34 23.5 34H56.5C56.7759 34 56.9997 34.2235 57 34.4994V34.4994C57.0003 34.7758 56.7764 35 56.5 35H23.5C23.2239 35 23 34.7761 23 34.5V34.5Z" fill="#8D9EB0"/>
<path fill-rule="evenodd" clip-rule="evenodd" d="M23 103.5C23 103.224 23.2239 103 23.5 103H56.5C56.7759 103 56.9997 103.223 57 103.499V103.499C57.0003 103.776 56.7764 104 56.5 104H23.5C23.2239 104 23 103.776 23 103.5V103.5Z" fill="#8D9EB0"/>
<path fill-rule="evenodd" clip-rule="evenodd" d="M57 17.5C57 17.2239 57.2239 17 57.5 17V17C57.7761 17 58 17.2239 58 17.5V31.5C58 31.7761 57.7761 32 57.5 32V32C57.2239 32 57 31.7761 57 31.5V17.5Z" fill="#8D9EB0"/>
<path fill-rule="evenodd" clip-rule="evenodd" d="M146 17.5C146 17.2239 146.224 17 146.5 17V17C146.776 17 147 17.2239 147 17.5V31.5C147 31.7761 146.776 32 146.5 32V32C146.224 32 146 31.7761 146 31.5V17.5Z" fill="#8D9EB0"/>
<path fill-rule="evenodd" clip-rule="evenodd" d="M70.1133 154.095C69.6866 154.26 69.6866 154.864 70.1133 155.028L74.7372 156.812C75.0648 156.939 75.4172 156.697 75.4172 156.346V152.778C75.4172 152.427 75.0648 152.185 74.7372 152.312L70.1133 154.095Z" fill="#8D9EB0"/>
<path fill-rule="evenodd" clip-rule="evenodd" d="M72 154.463C72 154.207 72.2074 154 72.4631 154H90.5368C90.7926 154 91 154.207 91 154.463V154.463C91 154.719 90.7926 154.926 90.5368 154.926H72.4632C72.2074 154.926 72 154.719 72 154.463V154.463Z" fill="#8D9EB0"/>
<path fill-rule="evenodd" clip-rule="evenodd" d="M195.113 22.0955C194.687 22.2601 194.687 22.8638 195.113 23.0285L199.737 24.8124C200.065 24.9388 200.417 24.697 200.417 24.3459V20.778C200.417 20.4269 200.065 20.1852 199.737 20.3116L195.113 22.0955Z" fill="#8D9EB0"/>
<path fill-rule="evenodd" clip-rule="evenodd" d="M60.1133 23.0955C59.6866 23.2601 59.6866 23.8638 60.1133 24.0285L64.7372 25.8124C65.0648 25.9388 65.4172 25.697 65.4172 25.3459V21.778C65.4172 21.4269 65.0648 21.1852 64.7372 21.3116L60.1133 23.0955Z" fill="#8D9EB0"/>
<path fill-rule="evenodd" clip-rule="evenodd" d="M62 23.4631C62 23.2074 62.2074 23 62.4631 23H92.5369C92.7926 23 93 23.2074 93 23.4631V23.4631C93 23.7189 92.7926 23.9263 92.5369 23.9263H62.4631C62.2074 23.9263 62 23.7189 62 23.4631V23.4631Z" fill="#8D9EB0"/>
<path fill-rule="evenodd" clip-rule="evenodd" d="M134.232 154.095C134.659 154.26 134.659 154.864 134.232 155.028L129.608 156.812C129.281 156.939 128.928 156.697 128.928 156.346V152.778C128.928 152.427 129.281 152.185 129.608 152.312L134.232 154.095Z" fill="#8D9EB0"/>
<path fill-rule="evenodd" clip-rule="evenodd" d="M132 154.463C132 154.207 131.793 154 131.537 154H112.463C112.207 154 112 154.207 112 154.463V154.463C112 154.719 112.207 154.926 112.463 154.926H131.537C131.793 154.926 132 154.719 132 154.463V154.463Z" fill="#8D9EB0"/>
<path fill-rule="evenodd" clip-rule="evenodd" d="M219.232 22.0955C219.659 22.2601 219.659 22.8638 219.232 23.0285L214.608 24.8124C214.281 24.9388 213.928 24.697 213.928 24.3459V20.778C213.928 20.4269 214.281 20.1852 214.608 20.3116L219.232 22.0955Z" fill="#8D9EB0"/>
<path fill-rule="evenodd" clip-rule="evenodd" d="M144.232 23.0955C144.659 23.2601 144.659 23.8638 144.232 24.0285L139.608 25.8124C139.281 25.9388 138.928 25.697 138.928 25.3459V21.778C138.928 21.4269 139.281 21.1852 139.608 21.3116L144.232 23.0955Z" fill="#8D9EB0"/>
<path fill-rule="evenodd" clip-rule="evenodd" d="M142 23.4631C142 23.2074 141.793 23 141.537 23H112.463C112.207 23 112 23.2074 112 23.4631V23.4631C112 23.7189 112.207 23.9263 112.463 23.9263H141.537C141.793 23.9263 142 23.7189 142 23.4631V23.4631Z" fill="#8D9EB0"/>
<path fill-rule="evenodd" clip-rule="evenodd" d="M67 146.5C67 146.224 67.2239 146 67.5 146V146C67.7761 146 68 146.224 68 146.5V161.5C68 161.776 67.7761 162 67.5 162V162C67.2239 162 67 161.776 67 161.5V146.5Z" fill="#8D9EB0"/>
<path fill-rule="evenodd" clip-rule="evenodd" d="M192 16.5C192 16.2239 192.224 16 192.5 16V16C192.776 16 193 16.2239 193 16.5V31.5C193 31.7761 192.776 32 192.5 32V32C192.224 32 192 31.7761 192 31.5V16.5Z" fill="#8D9EB0"/>
<path fill-rule="evenodd" clip-rule="evenodd" d="M136 146.5C136 146.224 136.224 146 136.5 146V146C136.776 146 137 146.224 137 146.5V161.5C137 161.776 136.776 162 136.5 162V162C136.224 162 136 161.776 136 161.5V146.5Z" fill="#8D9EB0"/>
<path fill-rule="evenodd" clip-rule="evenodd" d="M221 16.5C221 16.2239 221.224 16 221.5 16V16C221.776 16 222 16.2239 222 16.5V31.5C222 31.7761 221.776 32 221.5 32V32C221.224 32 221 31.7761 221 31.5V16.5Z" fill="#8D9EB0"/>
<path d="M105.911 154.618C105.911 151.449 104.317 149.762 101.598 149.762C98.8226 149.762 97.135 151.806 97.135 154.506V155.537C97.135 158.237 98.8601 160.244 101.898 160.244C103.342 160.244 104.692 159.7 105.536 159.062L104.711 157.675C103.942 158.106 103.135 158.5 102.048 158.5C100.323 158.5 99.4414 157.656 99.4039 155.743H105.836C105.873 155.443 105.911 155.031 105.911 154.618ZM103.829 154.225H99.4039C99.4414 152.406 100.191 151.468 101.617 151.468C103.06 151.468 103.829 152.406 103.829 154.131V154.225Z" fill="#8D9EB0"/>
<path d="M211.681 16.6929V14.874H206.375H204.012V28H204.237H211.681V26.1624H206.375V22.2433H211.269V20.4244H206.375V16.6929H211.681Z" fill="#8D9EB0"/>
<path d="M101.345 15.874H99.4132H97.0506V29H98.6444H100.876C104.664 29 106.689 26.8623 106.689 23.4496V21.1244C106.689 17.9742 104.907 15.874 101.345 15.874ZM104.326 23.4871C104.326 25.981 103.182 27.1811 100.895 27.1811H99.4132V17.6929H101.232C103.314 17.6929 104.326 18.9305 104.326 21.0682V23.4871Z" fill="#8D9EB0"/>
<path d="M40.2848 76H42.7225L38.5034 62.874H35.2969L31.2841 76H33.6655L34.6594 72.5497H39.1972L40.2848 76ZM36.8908 64.5241L38.6347 70.6559H35.1844L36.8908 64.5241Z" fill="#8D9EB0"/>
<path fill-rule="evenodd" clip-rule="evenodd" d="M35.8963 100.254C36.0609 100.681 36.6646 100.681 36.8292 100.254L38.6132 95.6305C38.7395 95.3029 38.4978 94.9505 38.1467 94.9505H34.5788C34.2277 94.9505 33.986 95.3029 34.1123 95.6305L35.8963 100.254Z" fill="#8D9EB0"/>
<rect width="1" height="18" rx="0.5" transform="matrix(1 0 0 -1 36 98)" fill="#8D9EB0"/>
<path fill-rule="evenodd" clip-rule="evenodd" d="M35.8963 37.9331C36.0609 37.5064 36.6646 37.5064 36.8292 37.9331L38.6132 42.557C38.7395 42.8846 38.4978 43.237 38.1467 43.237H34.5788C34.2277 43.237 33.986 42.8846 34.1123 42.557L35.8963 37.9331Z" fill="#8D9EB0"/>
<path fill-rule="evenodd" clip-rule="evenodd" d="M36 40.5C36 40.2239 36.2239 40 36.5 40V40C36.7761 40 37 40.2239 37 40.5V56.5C37 56.7761 36.7761 57 36.5 57V57C36.2239 57 36 56.7761 36 56.5V40.5Z" fill="#8D9EB0"/>
<path fill-rule="evenodd" clip-rule="evenodd" d="M227.389 146.638C229.676 146.638 231.177 148.475 231.177 151.363V152.376C231.177 155.132 229.395 157.12 227.107 157.12C226.039 157.12 225.176 156.726 224.482 156.013L224.295 156.876H222.476V143H224.801V147.669C225.439 147.013 226.301 146.638 227.389 146.638ZM228.851 152.451V151.288C228.851 149.338 228.195 148.4 226.92 148.4C226.02 148.4 225.307 148.832 224.801 149.469V154.532C225.307 155.076 225.945 155.376 226.714 155.376C228.008 155.376 228.851 154.363 228.851 152.451Z" fill="#8D9EB0"/>
<path fill-rule="evenodd" clip-rule="evenodd" d="M204.027 146.217C204.027 145.941 204.251 145.717 204.527 145.717V145.717C204.803 145.717 205.027 145.941 205.027 146.217V156.62C205.027 156.896 204.803 157.12 204.527 157.12V157.12C204.251 157.12 204.027 156.896 204.027 156.62V146.217Z" fill="#8D9EB0"/>
<path fill-rule="evenodd" clip-rule="evenodd" d="M207.38 146.217C207.38 145.941 207.604 145.717 207.88 145.717V145.717C208.157 145.717 208.38 145.941 208.38 146.217V156.62C208.38 156.896 208.157 157.12 207.88 157.12V157.12C207.604 157.12 207.38 156.896 207.38 156.62V146.217Z" fill="#8D9EB0"/>
<path fill-rule="evenodd" clip-rule="evenodd" d="M209.327 150.275C208.9 150.44 208.9 151.044 209.327 151.208L213.95 152.992C214.278 153.118 214.63 152.877 214.63 152.526V148.958C214.63 148.607 214.278 148.365 213.95 148.491L209.327 150.275Z" fill="#8D9EB0"/>
<rect x="211.582" y="150.242" width="9" height="1" rx="0.5" fill="#8D9EB0"/>
<path fill-rule="evenodd" clip-rule="evenodd" d="M203.2 151.21C203.627 151.046 203.627 150.442 203.2 150.277L198.576 148.493C198.249 148.367 197.896 148.609 197.896 148.96V152.528C197.896 152.879 198.249 153.12 198.576 152.994L203.2 151.21Z" fill="#8D9EB0"/>
<path fill-rule="evenodd" clip-rule="evenodd" d="M200.454 151.243H192.49C192.243 151.243 192.038 151.049 192.005 150.811C191.998 150.766 192 150.72 192.008 150.675C192.031 150.539 192.124 150.243 192.49 150.243H200.454C200.725 150.243 200.945 150.475 200.945 150.743C200.945 151.019 200.73 151.243 200.454 151.243Z" fill="#8D9EB0"/>
</svg>
