<svg width="150" height="140" viewBox="0 0 150 140" fill="none" xmlns="http://www.w3.org/2000/svg">
<g clip-path="url(#clip0)">
<g clip-path="url(#clip1)">
<path fill-rule="evenodd" clip-rule="evenodd" d="M107 24H43V43H27V100C27 106.627 21.6274 112 15 112H11V136H27H43H107H123H139V112H135C128.373 112 123 106.627 123 100V43H107V24Z" fill="#E7F0F5"/>
<path d="M109 22H41V41H25V100C25 105.523 20.5228 110 15 110H11V112H15C21.6274 112 27 106.627 27 100V43H43V24H107V43H119V41H109V22Z" fill="#5A7D91"/>
<path d="M119 41V43H123V100C123 106.627 128.373 112 135 112H139V110H135C129.477 110 125 105.523 125 100V41H119Z" fill="#5A7D91"/>
<path d="M11 136H139V138H11V136Z" fill="#5A7D91"/>
<path d="M57.3361 136H55.9219L123 68.9219V70.3361L57.3361 136Z" fill="#D1DBE0"/>
<path d="M89.9154 136H88.5011L123 101.501V102.915L89.9154 136Z" fill="#D1DBE0"/>
<path d="M122.495 136H121.08L139 118.08V119.495L122.495 136Z" fill="#D1DBE0"/>
<path d="M117.757 43L24.7569 136H23.3427L116.343 43H117.757Z" fill="#D1DBE0"/>
<path d="M102.764 24H104.178L27 101.178V99.7636L102.764 24Z" fill="#D1DBE0"/>
<path d="M70.1843 24H71.5986L27 68.5986V67.1843L70.1843 24Z" fill="#D1DBE0"/>
<path d="M11 117.178L16.1778 112H14.7636L11 115.764V117.178Z" fill="#D1DBE0"/>
<path d="M99 24H51V57H56V120H94V57H99V24Z" fill="white"/>
<path d="M97 24H53V55H58V117H92V55H97V24Z" fill="#CCD9E0"/>
<path fill-rule="evenodd" clip-rule="evenodd" d="M58 55H53V23H97V55H92V118H58V55ZM54 24H96V54H54V24ZM59 55V117H91V55H59Z" fill="#5A7D91"/>
</g>

<!-- R1 -->
<path fill-rule="evenodd" clip-rule="evenodd" d="M66.9538 34.316L68.9458 38H67.8178L65.9218 34.484C65.8738 34.496 65.8138 34.496 65.7538 34.496H64.2178V38H63.1978V29.6H65.7418C67.4698 29.6 68.5978 30.428 68.5978 31.772V32.348C68.5978 33.32 67.9738 34.016 66.9538 34.316ZM64.2178 33.668H65.7418C66.8698 33.668 67.5658 33.188 67.5658 32.312V31.808C67.5658 30.932 66.8458 30.428 65.7178 30.428H64.2178V33.668Z" input-id="infoBoss2R1" fill="#3C3C3C"/>
<path d="M73.0433 29.6V37.184H74.5793V38H70.2833V37.184H72.0593V30.764L70.4993 31.604L70.1153 30.92L72.2873 29.6H73.0433Z" input-id="infoBoss2R1" fill="#3C3C3C"/>
<path d="M94.9999 25L89.4369 26.5446L91.1397 28.2169L85.9512 33.5H76.9999V34.5H86.3707L91.8532 28.9176L93.556 30.59L94.9999 25Z" input-id="infoBoss2R1" fill="#3C3C3C" stroke="#3C3C3C" stroke-width="0.00"/>
<!-- R1 click area -->
<path d="M62.2 38.8V28.6H75.6L88.4 24H96V31.6L87.4 38.8H62.2Z" click-area-input-id="infoBoss2R1"/>

<!-- R2 -->
<path fill-rule="evenodd" clip-rule="evenodd" d="M67.0866 44.316L69.0786 48H67.9506L66.0546 44.484C66.0066 44.496 65.9466 44.496 65.8866 44.496H64.3506V48H63.3306V39.6H65.8746C67.6026 39.6 68.7306 40.428 68.7306 41.772V42.348C68.7306 43.32 68.1066 44.016 67.0866 44.316ZM64.3506 43.668H65.8746C67.0026 43.668 67.6986 43.188 67.6986 42.312V41.808C67.6986 40.932 66.9786 40.428 65.8506 40.428H64.3506V43.668Z" input-id="infoBoss2R2" fill="#3C3C3C"/>
<path d="M72.5613 45.024C71.5533 45.708 71.3133 46.284 71.2893 47.136H75.4173V48H70.2933V47.388C70.2933 45.9 70.9293 45.12 71.9133 44.412L73.1373 43.548C73.9653 42.96 74.3373 42.612 74.3373 41.928V41.604C74.3373 40.956 73.8093 40.284 72.6933 40.284C71.9253 40.284 71.3253 40.488 70.5693 41.064L70.0893 40.428C70.8573 39.792 71.6973 39.456 72.7293 39.456C74.3973 39.456 75.3693 40.5 75.3693 41.592V41.952C75.3693 42.792 74.8653 43.476 73.5693 44.352L72.5613 45.024Z" input-id="infoBoss2R2" fill="#3C3C3C"/>
<path d="M76.9999 43.5V44.5H85.9512L91.1397 49.783L89.4369 51.4554L94.9999 53L93.556 47.41L91.8532 49.0824L86.3707 43.5H76.9999Z" input-id="infoBoss2R2" fill="#3C3C3C" stroke="#3C3C3C" stroke-width="0.00"/>
<!-- R2 click area -->
<path d="M62.3 49V38.8H87.4L96 46.4V54H88.4L76.4 49H62.3Z" click-area-input-id="infoBoss2R2"/>

<!-- R3 -->
<path fill-rule="evenodd" clip-rule="evenodd" d="M67.4655 65.316L69.4575 69H68.3295L66.4335 65.484C66.3855 65.496 66.3255 65.496 66.2655 65.496H64.7295V69H63.7095V60.6H66.2535C67.9815 60.6 69.1095 61.428 69.1095 62.772V63.348C69.1095 64.32 68.4855 65.016 67.4655 65.316ZM64.7295 64.668H66.2535C67.3815 64.668 68.0775 64.188 68.0775 63.312V62.808C68.0775 61.932 67.3575 61.428 66.2295 61.428H64.7295V64.668Z" input-id="infoBoss2R3" fill="#3C3C3C"/>
<path d="M76.243 66.804C76.243 68.136 74.995 69.144 73.291 69.144C71.767 69.144 70.975 68.568 70.363 67.896L70.987 67.308C71.515 67.884 72.187 68.328 73.243 68.328C74.335 68.328 75.223 67.848 75.223 66.744V66.396C75.223 65.28 74.095 64.932 73.327 64.932H72.499V64.152H73.327C74.095 64.152 74.947 63.816 74.947 62.904V62.616C74.947 61.644 74.155 61.26 73.243 61.26C72.331 61.26 71.659 61.656 71.047 62.22L70.471 61.644C71.155 60.972 72.043 60.456 73.291 60.456C74.755 60.456 75.943 61.248 75.943 62.508V62.94C75.943 63.744 75.199 64.344 74.467 64.488C75.199 64.572 76.243 65.232 76.243 66.288V66.804Z" input-id="infoBoss2R3" fill="#3C3C3C"/>
<path d="M89.9999 56L84.4369 57.5446L86.1397 59.2169L80.9512 64.5H77.9999V65.5H81.3707L86.8532 59.9176L88.556 61.59L89.9999 56Z" input-id="infoBoss2R3" fill="#3C3C3C" stroke="#3C3C3C" stroke-width="0.00"/>
<!-- R3 click area -->
<path d="M62.7 70V59.4H77.3L83.4 55H91V62.6L82.4 70H62.7Z" click-area-input-id="infoBoss2R3"/>

<!-- R4 -->
<path fill-rule="evenodd" clip-rule="evenodd" d="M78.4538 107.316L80.4458 111H79.3178L77.4218 107.484C77.3738 107.496 77.3138 107.496 77.2538 107.496H75.7178V111H74.6978V102.6H77.2418C78.9698 102.6 80.0978 103.428 80.0978 104.772V105.348C80.0978 106.32 79.4738 107.016 78.4538 107.316ZM75.7178 106.668H77.2418C78.3698 106.668 79.0658 106.188 79.0658 105.312V104.808C79.0658 103.932 78.3458 103.428 77.2178 103.428H75.7178V106.668Z" input-id="infoBoss2R4" fill="#3C3C3C"/>
<path d="M86.4633 111H85.4553V109.188H81.4353V108.468L84.5313 102.6H85.5513L82.5153 108.36H85.4673L85.6593 105.924L86.4633 105.912V108.36H87.6393V109.188H86.4633V111Z" input-id="infoBoss2R4" fill="#3C3C3C"/>
<path d="M73 106.5V107.5H69.0488L63.8602 112.783L65.5631 114.455L60 116L61.4439 110.41L63.1468 112.082L68.6293 106.5H73Z" input-id="infoBoss2R4" fill="#3C3C3C" stroke="#3C3C3C" stroke-width="0.00"/>
<!-- R4 click area -->
<path d="M59 117V109.4L67.6 101.6H88.6V112H73.7L66.6 117H59Z" click-area-input-id="infoBoss2R4"/>

<!-- R5 -->
<path fill-rule="evenodd" clip-rule="evenodd" d="M103.641 56.316L105.633 60H104.505L102.609 56.484C102.561 56.496 102.501 56.496 102.441 56.496H100.905V60H99.8853V51.6H102.429C104.157 51.6 105.285 52.428 105.285 53.772V54.348C105.285 55.32 104.661 56.016 103.641 56.316ZM100.905 55.668H102.429C103.557 55.668 104.253 55.188 104.253 54.312V53.808C104.253 52.932 103.533 52.428 102.405 52.428H100.905V55.668Z" input-id="infoBoss2R5" fill="#3C3C3C"/>
<path d="M108.291 54.948C108.663 54.816 109.047 54.744 109.647 54.744C111.327 54.744 112.323 55.752 112.323 56.976V57.78C112.323 59.112 111.111 60.144 109.419 60.144C107.979 60.144 107.211 59.58 106.551 58.788L107.199 58.236C107.787 58.884 108.363 59.304 109.407 59.304C110.463 59.304 111.303 58.764 111.303 57.72V57.084C111.303 56.1 110.487 55.572 109.323 55.572C108.819 55.572 108.483 55.644 108.015 55.8H107.283V51.6H111.879V52.476H108.291V54.948Z" input-id="infoBoss2R5" fill="#3C3C3C"/>
<path d="M122 44L116.437 45.5446L118.14 47.2169L112.804 52.6497L113 52.8419V53.5H113.371L118.853 47.9176L120.556 49.59L122 44Z" input-id="infoBoss2R5" fill="#3C3C3C" stroke="#3C3C3C" stroke-width="0.00"/>
<!-- R5 click area -->
<path d="M98.9 61V50.6H113.3L115.4 43H123V50.6L113.3 61H98.9Z" click-area-input-id="infoBoss2R5"/>

<!-- R6 -->
<path fill-rule="evenodd" clip-rule="evenodd" d="M59.5124 12.316L61.5044 16H60.3764L58.4804 12.484C58.4324 12.496 58.3724 12.496 58.3124 12.496H56.7764V16H55.7564V7.59999H58.3004C60.0284 7.59999 61.1564 8.42799 61.1564 9.77199V10.348C61.1564 11.32 60.5324 12.016 59.5124 12.316ZM56.7764 11.668H58.3004C59.4284 11.668 60.1244 11.188 60.1244 10.312V9.80799C60.1244 8.93199 59.4044 8.42799 58.2764 8.42799H56.7764V11.668Z" input-id="infoBoss2R6" fill="#3C3C3C"/>
<path fill-rule="evenodd" clip-rule="evenodd" d="M63.7779 11.584C64.2939 10.9 65.0019 10.48 66.0819 10.48C67.6299 10.48 68.4579 11.56 68.4579 12.916V13.432C68.4579 14.86 67.5339 16.144 65.6499 16.144C63.8859 16.144 62.7459 14.812 62.7459 12.928V12.328C62.7459 9.15999 64.4739 7.57599 67.5339 7.45599V8.29599C65.2419 8.40399 63.9219 9.47199 63.7779 11.584ZM65.6739 15.304C66.8859 15.304 67.4499 14.512 67.4499 13.408V12.952C67.4499 11.992 67.0059 11.296 65.9259 11.296C64.9659 11.296 64.3539 11.704 63.7659 12.52V12.904C63.7659 14.476 64.5219 15.304 65.6739 15.304Z" input-id="infoBoss2R6" fill="#3C3C3C"/>
<path d="M42 21L47.5631 19.4554L45.8602 17.783L51.0488 12.5H54V11.5H50.6293L45.1468 17.0824L43.4439 15.41L42 21Z" input-id="infoBoss2R6" fill="#3C3C3C" stroke="#3C3C3C" stroke-width="0.00"/>
<!-- R6 click area -->
<path d="M41 22V14.4L49.6 6.4H69.5V17.2H56.8L48.6 22H41Z" click-area-input-id="infoBoss2R6"/>

<!-- R7 -->
<path fill-rule="evenodd" clip-rule="evenodd" d="M18.485 31.316L20.477 35H19.349L17.453 31.484C17.405 31.496 17.345 31.496 17.285 31.496H15.749V35H14.729V26.6H17.273C19.001 26.6 20.129 27.428 20.129 28.772V29.348C20.129 30.32 19.505 31.016 18.485 31.316ZM15.749 30.668H17.273C18.401 30.668 19.097 30.188 19.097 29.312V28.808C19.097 27.932 18.377 27.428 17.249 27.428H15.749V30.668Z" input-id="infoBoss2R7" fill="#3C3C3C"/>
<path d="M21.1573 26.6H26.5933V27.488L23.3053 35H22.2493L25.6093 27.452H21.1573V26.6Z" input-id="infoBoss2R7" fill="#3C3C3C"/>
<path d="M39.9999 40L34.4369 38.4554L36.1397 36.783L30.9512 31.5H27.9999V30.5H31.3707L36.8532 36.0823L38.556 34.4099L39.9999 40Z" input-id="infoBoss2R7" fill="#3C3C3C" stroke="#3C3C3C" stroke-width="0.00"/>
<!-- R7 click area -->
<path d="M13.7 36V25.6H32.4L41 33.4V41H33.4L27.6 36H13.7Z" click-area-input-id="infoBoss2R7"/>

</g>
<defs>
<clipPath id="clip0">
<rect width="150" height="140" fill="white"/>
</clipPath>
<clipPath id="clip1">
<rect width="150" height="190" fill="white" transform="translate(0 -52)"/>
</clipPath>
</defs>
</svg>
